<svg xmlns="http://www.w3.org/2000/svg" width="120" height="100" fill="none"><path d="M105 49.99C105 74.85 84.84 95 59.99 95c-9.72 0-18.7-3.08-26.05-8.31A45.615 45.615 0 0 1 28 81.63c-8.03-8.13-13-19.31-13-31.64C15 25.15 35.13 5 59.99 5 84.85 5 105 25.13 105 49.99z" fill="#EFF0F1"/><mask id="a" maskUnits="userSpaceOnUse" x="-5" y="5" width="111" height="91"><path d="M105.003 49.99c0 24.86-20.16 45.01-45.01 45.01-9.72 0-48.64 2.73-55.99-2.5-2.13-1.52-1.17.35-3-1.5-8.03-8.13-5.5-28.68-5.5-41.01 0-24.84-10.5-44.99 64.49-44.99 24.86 0 45.01 20.13 45.01 44.99z" fill="#fff"/></mask><g mask="url(#a)"><path d="M115.875 82h-93.75C20.458 82 19 80.507 19 78.8V21.2c0-1.707 1.458-3.2 3.125-3.2h93.75c1.667 0 3.125 1.493 3.125 3.2v57.6c-.208 1.92-1.458 3.2-3.125 3.2z" fill="#E9AF58"/><path d="M30 55h-3v6h3v-6zm60 0h-3v6h3v-6zm-30 0h-3v6h3v-6zm-24 0h-3v6h3v-6zm60 0h-3v6h3v-6zm-30 0h-3v6h3v-6zm-24 0h-3v6h3v-6zm60 0h-3v6h3v-6zm-30 0h-3v6h3v-6zm-24 0h-3v6h3v-6zm30 0h-3v6h3v-6z" fill="#fff"/><path d="M103 76H89c-.6 0-1-.4-1-1v-8c0-.6.4-1 1-1h14c.6 0 1 .4 1 1v8c-.2.6-.6 1-1 1z" fill="#DE6A5A"/></g><circle cx="36" cy="34" r="9" fill="#CD5747"/><circle cx="46" cy="34" r="9" fill="#5AB2AC"/><path fill-rule="evenodd" clip-rule="evenodd" d="M41 41.484c2.412-1.614 4-4.364 4-7.484s-1.588-5.87-4-7.485A8.993 8.993 0 0 0 37 34a8.99 8.99 0 0 0 4 7.484z" fill="#1F2225"/></svg>