<svg xmlns="http://www.w3.org/2000/svg" width="120" height="100" viewBox="0 0 120 100" fill="none"><path d="M60 95c24.853 0 45-20.147 45-45S84.853 5 60 5 15 25.147 15 50s20.147 45 45 45z" fill="#F0F1F2"/><path d="M60 95c24.853 0 45-20.147 45-45S84.853 5 60 5 15 25.147 15 50s20.147 45 45 45z" fill="#F0F1F2"/><path d="M84.826 32.827c.75.75 1.17 1.767 1.17 2.827V65.33c0 1.068-.426 2.09-1.184 2.842l-27.26 27.014h-.01C34.61 94.034 16.212 75.63 15 52.654l27.83-27.5c.75-.74 1.76-1.154 2.813-1.154h28.7c1.06 0 2.078.42 2.828 1.17L80 28l3 3 1.826 1.83z" fill="#108060"/><path d="M84.828 32.827c.75.75 1.172 1.767 1.172 2.828v4.343l-17 2 12-13 3.828 3.83z" fill="#02614E"/><path d="M69 46c2.76 0 5-2.24 5-5s-2.24-5-5-5-5 2.24-5 5 2.24 5 5 5z" fill="#F0EFEC"/><path fill-rule="evenodd" clip-rule="evenodd" d="M90.322 4.683c-4.905-4.91-12.857-4.91-17.76 0l-1.65 1.65c1.473.366 2.915.805 4.325 1.312l.14-.14c3.35-3.353 8.78-3.353 12.127 0 3.348 3.352 3.348 8.788 0 12.14L67.58 39.595c-.778.78-.778 2.042 0 2.82.778.78 2.04.78 2.817 0l19.924-19.95c4.906-4.91 4.906-12.87.002-17.782z" fill="#B6BABF"/></svg>